<svg id="Layer_1" data-name="Layer 1" xmlns="http://www.w3.org/2000/svg" xmlns:xlink="http://www.w3.org/1999/xlink" viewBox="0 0 1467.87 1467.87"><defs><linearGradient id="linear-gradient" x1="767.03" y1="628.73" x2="1006.96" y2="628.73" gradientUnits="userSpaceOnUse"><stop offset="0" stop-color="#fff2db"/><stop offset="0" stop-color="#e3cc7e"/><stop offset="0" stop-color="#c5a41b"/><stop offset="1" stop-color="#dbb722"/></linearGradient><linearGradient id="linear-gradient-2" x1="767.03" y1="733.94" x2="915.98" y2="733.94" xlink:href="#linear-gradient"/><linearGradient id="linear-gradient-3" x1="751.78" y1="841.54" x2="856.84" y2="841.54" xlink:href="#linear-gradient"/><linearGradient id="linear-gradient-4" x1="514.15" y1="733.94" x2="795.56" y2="733.94" xlink:href="#linear-gradient"/><linearGradient id="linear-gradient-5" x1="460.91" y1="840.41" x2="622.48" y2="840.41" xlink:href="#linear-gradient"/></defs><rect x="767.03" y="601.47" width="2390.92" height="540.51" fill="url(#linear-gradient)"/><polygon points="767.03 706.6 767.03 761.82 883.02 761.82 915.98 706.05 767.03 706.6" fill="url(#linear-gradient-2)"/><polygon points="751.78 814.25 751.78 869.47 829.63 869.47 856.84 813.61 751.78 814.25" fill="url(#linear-gradient-3)"/><polygon points="628.24 598.3 795.55 869.57 728.37 869.57 628.24 704.01 581.34 777.03 514.15 777.03 628.24 598.3" fill="url(#linear-gradient-4)"/><polygon points="496.41 813.79 460.92 867.03 587.67 867.03 622.48 813.79 496.41 813.79" fill="url(#linear-gradient-5)"/></svg>